<svg id="Layer_1" data-name="Layer 1" xmlns="http://www.w3.org/2000/svg" viewBox="0 0 128 128"><title>MICROPHONE</title><path style="fill: white;" d="M106.383,57.26H97.006a1.75,1.75,0,0,0-1.75,1.75v7.117a31.256,31.256,0,1,1-62.512,0V59.01a1.75,1.75,0,0,0-1.75-1.75H21.617a1.75,1.75,0,0,0-1.75,1.75v7.117a44.05,44.05,0,0,0,37.694,43.659V126.24a1.75,1.75,0,0,0,1.75,1.75h9.377a1.75,1.75,0,0,0,1.75-1.75V109.786a44.05,44.05,0,0,0,37.694-43.659V59.01A1.75,1.75,0,0,0,106.383,57.26Zm-1.75,8.867A40.554,40.554,0,0,1,68.5,106.507a1.75,1.75,0,0,0-1.559,1.739V124.49H61.062V108.246a1.75,1.75,0,0,0-1.559-1.739,40.554,40.554,0,0,1-36.136-40.38V60.76h5.877v5.367a34.756,34.756,0,1,0,69.512,0V60.76h5.877Z"/><path style="fill: white;" d="M39.562,70.039q.1.6.219,1.188l.006.033,0,.009a24.749,24.749,0,0,0,48.418,0l0-.009.006-.033q.124-.589.219-1.188c0-.019.007-.038.01-.056a24.829,24.829,0,0,0,.3-3.856V24.76a24.823,24.823,0,0,0-.3-3.854c0-.026-.01-.051-.014-.076q-.094-.589-.216-1.169l-.006-.033,0-.009a24.749,24.749,0,0,0-48.418,0l0,.009-.006.033q-.122.58-.216,1.169c0,.026-.01.051-.014.076a24.823,24.823,0,0,0-.3,3.854V66.127a24.829,24.829,0,0,0,.3,3.856C39.555,70,39.559,70.02,39.562,70.039ZM42.75,42.5h8.667a2.253,2.253,0,0,1,2.25,2.25v1.377a2.253,2.253,0,0,1-2.25,2.25H42.75Zm.158,26.109a45.67,45.67,0,0,1-.158-5.341h8.667a2.253,2.253,0,0,1,2.25,2.25V66.9a2.253,2.253,0,0,1-2.25,2.25H42.99C42.965,68.969,42.93,68.794,42.908,68.614Zm42.245-.574c-.034.372-.09.739-.143,1.109H76.583a2.253,2.253,0,0,1-2.25-2.25V65.522a2.253,2.253,0,0,1,2.25-2.25H85.25C85.25,64.861,85.3,66.456,85.153,68.04Zm.1-19.658H76.583a2.253,2.253,0,0,1-2.25-2.25V44.755a2.253,2.253,0,0,1,2.25-2.25H85.25Zm-.158-26.108a45.613,45.613,0,0,1,.158,5.341H76.583a2.253,2.253,0,0,1-2.25-2.25V23.988a2.253,2.253,0,0,1,2.25-2.25H85.01C85.035,21.917,85.07,22.093,85.092,22.273ZM64,3.51A21.281,21.281,0,0,1,84.216,18.238H76.583a5.756,5.756,0,0,0-5.75,5.75v1.376a5.756,5.756,0,0,0,5.75,5.75H85.25V39H76.583a5.756,5.756,0,0,0-5.75,5.75v1.377a5.756,5.756,0,0,0,5.75,5.75H85.25v7.891H76.583a5.756,5.756,0,0,0-5.75,5.75V66.9a5.756,5.756,0,0,0,5.75,5.75h7.633a21.239,21.239,0,0,1-40.432,0h7.633a5.756,5.756,0,0,0,5.75-5.75V65.522a5.756,5.756,0,0,0-5.75-5.75H42.75V51.882h8.667a5.756,5.756,0,0,0,5.75-5.75V44.755A5.756,5.756,0,0,0,51.417,39H42.75V31.114h8.667a5.756,5.756,0,0,0,5.75-5.75V23.988a5.756,5.756,0,0,0-5.75-5.75H43.784A21.281,21.281,0,0,1,64,3.51ZM42.75,24.76a21.235,21.235,0,0,1,.24-3.021h8.427a2.253,2.253,0,0,1,2.25,2.25v1.376a2.253,2.253,0,0,1-2.25,2.25H42.75Z"/></svg>